<svg xmlns="http://www.w3.org/2000/svg" version="1.1" xmlns:xlink="http://www.w3.org/1999/xlink" xmlns:svgjs="http://svgjs.com/svgjs" width="1440" height="560" preserveAspectRatio="none" viewBox="0 0 1440 560"><g mask="url(&quot;#SvgjsMask1061&quot;)" fill="none"><rect width="1440" height="560" x="0" y="0" fill="rgba(77, 111, 121, 1)"></rect><path d="M1229 299L1539 -11" stroke-width="10" stroke="url(#SvgjsLinearGradient1062)" stroke-linecap="round" class="BottomLeft"></path><path d="M896 441L1301 36" stroke-width="6" stroke="url(#SvgjsLinearGradient1062)" stroke-linecap="round" class="BottomLeft"></path><path d="M1111 35L1271 -125" stroke-width="6" stroke="url(#SvgjsLinearGradient1062)" stroke-linecap="round" class="BottomLeft"></path><path d="M828 394L423 799" stroke-width="6" stroke="url(#SvgjsLinearGradient1062)" stroke-linecap="round" class="BottomLeft"></path><path d="M1061 197L1288 -30" stroke-width="10" stroke="url(#SvgjsLinearGradient1062)" stroke-linecap="round" class="BottomLeft"></path><path d="M272 332L437 167" stroke-width="10" stroke="url(#SvgjsLinearGradient1062)" stroke-linecap="round" class="BottomLeft"></path><path d="M941 416L1272 85" stroke-width="10" stroke="url(#SvgjsLinearGradient1062)" stroke-linecap="round" class="BottomLeft"></path><path d="M1127 266L844 549" stroke-width="10" stroke="url(#SvgjsLinearGradient1062)" stroke-linecap="round" class="BottomLeft"></path><path d="M1440 543L1752 231" stroke-width="10" stroke="url(#SvgjsLinearGradient1062)" stroke-linecap="round" class="BottomLeft"></path><path d="M86 1L-230 317" stroke-width="10" stroke="url(#SvgjsLinearGradient1063)" stroke-linecap="round" class="TopRight"></path><path d="M1188 492L1511 169" stroke-width="6" stroke="url(#SvgjsLinearGradient1062)" stroke-linecap="round" class="BottomLeft"></path><path d="M1102 177L769 510" stroke-width="8" stroke="url(#SvgjsLinearGradient1063)" stroke-linecap="round" class="TopRight"></path><path d="M882 519L614 787" stroke-width="6" stroke="url(#SvgjsLinearGradient1063)" stroke-linecap="round" class="TopRight"></path><path d="M589 163L176 576" stroke-width="10" stroke="url(#SvgjsLinearGradient1062)" stroke-linecap="round" class="BottomLeft"></path><path d="M65 328L-204 597" stroke-width="10" stroke="url(#SvgjsLinearGradient1062)" stroke-linecap="round" class="BottomLeft"></path><path d="M844 234L551 527" stroke-width="6" stroke="url(#SvgjsLinearGradient1062)" stroke-linecap="round" class="BottomLeft"></path><path d="M517 145L819 -157" stroke-width="6" stroke="url(#SvgjsLinearGradient1063)" stroke-linecap="round" class="TopRight"></path><path d="M596 142L777 -39" stroke-width="6" stroke="url(#SvgjsLinearGradient1062)" stroke-linecap="round" class="BottomLeft"></path><path d="M921 394L1281 34" stroke-width="8" stroke="url(#SvgjsLinearGradient1062)" stroke-linecap="round" class="BottomLeft"></path><path d="M1171 218L830 559" stroke-width="10" stroke="url(#SvgjsLinearGradient1063)" stroke-linecap="round" class="TopRight"></path><path d="M749 147L1127 -231" stroke-width="6" stroke="url(#SvgjsLinearGradient1062)" stroke-linecap="round" class="BottomLeft"></path><path d="M868 444L1245 67" stroke-width="10" stroke="url(#SvgjsLinearGradient1062)" stroke-linecap="round" class="BottomLeft"></path><path d="M259 173L484 -52" stroke-width="8" stroke="url(#SvgjsLinearGradient1063)" stroke-linecap="round" class="TopRight"></path><path d="M1247 338L1625 -40" stroke-width="10" stroke="url(#SvgjsLinearGradient1063)" stroke-linecap="round" class="TopRight"></path><path d="M945 198L1097 46" stroke-width="6" stroke="url(#SvgjsLinearGradient1062)" stroke-linecap="round" class="BottomLeft"></path><path d="M657 417L982 92" stroke-width="6" stroke="url(#SvgjsLinearGradient1063)" stroke-linecap="round" class="TopRight"></path><path d="M471 463L81 853" stroke-width="6" stroke="url(#SvgjsLinearGradient1062)" stroke-linecap="round" class="BottomLeft"></path><path d="M1304 336L1516 124" stroke-width="10" stroke="url(#SvgjsLinearGradient1062)" stroke-linecap="round" class="BottomLeft"></path><path d="M1149 415L1379 185" stroke-width="8" stroke="url(#SvgjsLinearGradient1062)" stroke-linecap="round" class="BottomLeft"></path><path d="M364 203L-4 571" stroke-width="8" stroke="url(#SvgjsLinearGradient1062)" stroke-linecap="round" class="BottomLeft"></path><path d="M1108 15L1333 -210" stroke-width="10" stroke="url(#SvgjsLinearGradient1062)" stroke-linecap="round" class="BottomLeft"></path><path d="M52 362L388 26" stroke-width="8" stroke="url(#SvgjsLinearGradient1063)" stroke-linecap="round" class="TopRight"></path><path d="M1229 242L865 606" stroke-width="10" stroke="url(#SvgjsLinearGradient1062)" stroke-linecap="round" class="BottomLeft"></path><path d="M1212 477L1446 243" stroke-width="8" stroke="url(#SvgjsLinearGradient1063)" stroke-linecap="round" class="TopRight"></path><path d="M801 134L977 -42" stroke-width="8" stroke="url(#SvgjsLinearGradient1063)" stroke-linecap="round" class="TopRight"></path><path d="M998 234L744 488" stroke-width="10" stroke="url(#SvgjsLinearGradient1062)" stroke-linecap="round" class="BottomLeft"></path><path d="M108 409L-103 620" stroke-width="10" stroke="url(#SvgjsLinearGradient1063)" stroke-linecap="round" class="TopRight"></path><path d="M1426 252L1230 448" stroke-width="6" stroke="url(#SvgjsLinearGradient1063)" stroke-linecap="round" class="TopRight"></path><path d="M420 433L589 264" stroke-width="10" stroke="url(#SvgjsLinearGradient1063)" stroke-linecap="round" class="TopRight"></path></g><defs><mask id="SvgjsMask1061"><rect width="1440" height="560" fill="#ffffff"></rect></mask><linearGradient x1="100%" y1="0%" x2="0%" y2="100%" id="SvgjsLinearGradient1062"><stop stop-color="rgba(243, 236, 237, 0)" offset="0"></stop><stop stop-color="rgba(243, 236, 237, 1)" offset="1"></stop></linearGradient><linearGradient x1="0%" y1="100%" x2="100%" y2="0%" id="SvgjsLinearGradient1063"><stop stop-color="rgba(243, 236, 237, 0)" offset="0"></stop><stop stop-color="rgba(243, 236, 237, 1)" offset="1"></stop></linearGradient></defs></svg>